<svg width="55" height="54" viewBox="0 0 55 54" fill="none" xmlns="http://www.w3.org/2000/svg">
<circle cx="27" cy="27" r="27" fill="#C15243"/>
<path d="M54 24C55 42 41.9117 54 27 54C12.0883 54 0 41.9117 0 27C0 12.0883 12.0883 0 27 0C41.9117 0 37.5 15.5 54 24Z" fill="#EB6856"/>
<path d="M11.7275 25.3809H7.18701V23.5464H11.7275V25.3809ZM19.7793 16.8311V29H17.1646V19.7861C17.0207 19.9134 16.8491 20.0352 16.6499 20.1514C16.4562 20.262 16.2487 20.3644 16.0273 20.4585C15.806 20.547 15.5763 20.6245 15.3384 20.6909C15.1004 20.7518 14.8652 20.7961 14.6328 20.8237V18.6157C15.3135 18.4165 15.9554 18.1619 16.5586 17.8521C17.1618 17.5422 17.7069 17.2018 18.1938 16.8311H19.7793ZM23.8301 28.6929V26.4517C24.6436 26.9497 25.5096 27.1987 26.4282 27.1987C27.12 27.1987 27.6595 27.0355 28.0469 26.709C28.4398 26.377 28.6362 25.9287 28.6362 25.3643C28.6362 24.1855 27.8034 23.5962 26.1377 23.5962C25.5234 23.5962 24.8151 23.6432 24.0127 23.7373L24.4609 17.0967H30.7612V19.2383H26.4614L26.2954 21.6206C26.7215 21.5874 27.0895 21.5708 27.3994 21.5708C28.6224 21.5708 29.5798 21.8918 30.2715 22.5337C30.9632 23.1756 31.3091 24.0389 31.3091 25.1235C31.3091 26.3244 30.8968 27.3066 30.0723 28.0703C29.2477 28.8285 28.1299 29.2075 26.7188 29.2075C25.5732 29.2075 24.6104 29.036 23.8301 28.6929ZM35.999 23.1313C35.1523 23.1313 34.4689 22.863 33.9487 22.3262C33.4341 21.7894 33.1768 21.0672 33.1768 20.1597C33.1768 19.1691 33.4507 18.3833 33.9985 17.8022C34.5519 17.2212 35.2879 16.9307 36.2065 16.9307C37.0864 16.9307 37.7726 17.1935 38.2651 17.7192C38.7632 18.245 39.0122 18.9837 39.0122 19.9355C39.0122 20.915 38.7383 21.6925 38.1904 22.2681C37.6426 22.8436 36.9121 23.1313 35.999 23.1313ZM36.1567 18.3916C35.3488 18.3916 34.9448 18.9533 34.9448 20.0767C34.9448 21.1392 35.3294 21.6704 36.0986 21.6704C36.8844 21.6704 37.2773 21.117 37.2773 20.0103C37.2773 18.9312 36.9038 18.3916 36.1567 18.3916ZM44.6899 17.0967L36.937 29H34.9116L42.6479 17.0967H44.6899ZM43.4116 29.166C42.5649 29.166 41.8815 28.8976 41.3613 28.3608C40.8467 27.8241 40.5894 27.1019 40.5894 26.1943C40.5894 25.2038 40.8633 24.418 41.4111 23.8369C41.9645 23.2559 42.7005 22.9653 43.6191 22.9653C44.5046 22.9653 45.1935 23.2254 45.686 23.7456C46.1785 24.2658 46.4248 25.0018 46.4248 25.9536C46.4248 26.9331 46.1509 27.7134 45.603 28.2944C45.0552 28.8755 44.3247 29.166 43.4116 29.166ZM43.5444 24.4263C42.742 24.4263 42.3408 24.988 42.3408 26.1113C42.3408 27.1738 42.731 27.7051 43.5112 27.7051C44.297 27.7051 44.6899 27.1517 44.6899 26.0449C44.6899 25.5303 44.5848 25.1318 44.3745 24.8496C44.1642 24.5674 43.8875 24.4263 43.5444 24.4263Z" fill="white"/>
<path d="M18.8403 41H17.79V38.2666H14.8237V41H13.7778V34.6982H14.8237V37.3481H17.79V34.6982H18.8403V41ZM23.7358 41H22.7471V40.2969H22.7295C22.4189 40.8359 21.9634 41.1055 21.3628 41.1055C20.9204 41.1055 20.5732 40.9854 20.3213 40.7451C20.0723 40.5049 19.9478 40.187 19.9478 39.7915C19.9478 38.9419 20.437 38.4468 21.4155 38.3062L22.7515 38.1172C22.7515 37.4756 22.4468 37.1548 21.8374 37.1548C21.3013 37.1548 20.8179 37.3394 20.3872 37.7085V36.8164C20.8618 36.5352 21.4097 36.3945 22.0308 36.3945C23.1675 36.3945 23.7358 36.9541 23.7358 38.0732V41ZM22.7515 38.7896L21.8066 38.9214C21.5137 38.9595 21.2925 39.0312 21.1431 39.1367C20.9966 39.2393 20.9233 39.4209 20.9233 39.6816C20.9233 39.8721 20.9907 40.0288 21.1255 40.1519C21.2632 40.272 21.4463 40.332 21.6748 40.332C21.9854 40.332 22.2417 40.2236 22.4438 40.0068C22.6489 39.7871 22.7515 39.5117 22.7515 39.1807V38.7896ZM27.4624 41V36.5H29.6113C30.0947 36.5 30.4771 36.5981 30.7583 36.7944C31.0396 36.9907 31.1802 37.2588 31.1802 37.5986C31.1802 38.1729 30.8857 38.5215 30.2969 38.6445C30.9971 38.7324 31.3472 39.0781 31.3472 39.6816C31.3472 40.0537 31.1992 40.3672 30.9033 40.6221C30.6074 40.874 30.2397 41 29.8003 41H27.4624ZM28.4819 37.2207V38.3413H29.3828C29.8926 38.3413 30.1475 38.1436 30.1475 37.748C30.1475 37.3965 29.9248 37.2207 29.4795 37.2207H28.4819ZM28.4819 39.0488V40.2749H29.5278C30.0493 40.2749 30.3101 40.064 30.3101 39.6421C30.3101 39.2466 30.0273 39.0488 29.4619 39.0488H28.4819ZM35.6582 40.7935C35.2979 41.0015 34.8716 41.1055 34.3794 41.1055C33.7114 41.1055 33.1724 40.8975 32.7622 40.4814C32.3521 40.0625 32.147 39.5205 32.147 38.8555C32.147 38.1143 32.3667 37.5195 32.8062 37.0713C33.2485 36.6201 33.8389 36.3945 34.5771 36.3945C34.9873 36.3945 35.3491 36.4663 35.6626 36.6099V37.5591C35.3491 37.3247 35.0151 37.2075 34.6606 37.2075C34.23 37.2075 33.877 37.354 33.6016 37.647C33.3262 37.937 33.1885 38.3179 33.1885 38.7896C33.1885 39.2554 33.3174 39.623 33.5752 39.8926C33.8359 40.1621 34.1846 40.2969 34.6211 40.2969C34.9873 40.2969 35.333 40.1665 35.6582 39.9058V40.7935ZM40.4834 39.0269H37.416C37.4277 39.4429 37.5552 39.7637 37.7983 39.9893C38.0444 40.2148 38.3813 40.3276 38.8091 40.3276C39.2896 40.3276 39.7305 40.1841 40.1318 39.897V40.7188C39.7217 40.9766 39.1797 41.1055 38.5059 41.1055C37.8438 41.1055 37.3237 40.9019 36.9458 40.4946C36.5708 40.0845 36.3833 39.5088 36.3833 38.7676C36.3833 38.0674 36.5898 37.4976 37.0029 37.0581C37.4189 36.6157 37.9346 36.3945 38.5498 36.3945C39.165 36.3945 39.6411 36.5923 39.978 36.9878C40.3149 37.3833 40.4834 37.9326 40.4834 38.6357V39.0269ZM39.499 38.3062C39.4961 37.9399 39.4097 37.6558 39.2397 37.4536C39.0698 37.2485 38.8354 37.146 38.5366 37.146C38.2437 37.146 37.9946 37.2529 37.7896 37.4668C37.5874 37.6807 37.4629 37.9604 37.416 38.3062H39.499ZM42.6455 34.6982L42.562 39.1455H41.7271L41.6128 34.6982H42.6455ZM42.1577 41.0879C41.9819 41.0879 41.8325 41.0322 41.7095 40.9209C41.5864 40.8066 41.5249 40.6689 41.5249 40.5078C41.5249 40.3408 41.5864 40.1987 41.7095 40.0815C41.8325 39.9644 41.9819 39.9058 42.1577 39.9058C42.3276 39.9058 42.4741 39.9644 42.5972 40.0815C42.7231 40.1987 42.7861 40.3408 42.7861 40.5078C42.7861 40.6689 42.7231 40.8066 42.5972 40.9209C42.4741 41.0322 42.3276 41.0879 42.1577 41.0879Z" fill="white"/>
</svg>
